<svg xmlns="http://www.w3.org/2000/svg" height="800" width="1200" version="1.0" viewBox="-107.61735 -49.4435 932.6837 296.661"><path d="M473.067 193.29h42.429V0h-42.429zm54.475 0h42.428V0h-42.428z" fill="#e20014"/><path d="M419.088 111.671c.99 1.754 1.67 3.672 1.815 5.797l-42.552-.145c1.237-7.178 7.487-14.397 14.644-16.11 10.334-3.176 20.833 1.3 26.093 10.458m38.633-10.23c6.27 11.612 7.735 26.505 5.714 40.984l-15.243.166-70.543.04c.29 6.58 4.456 13.078 10.602 16.832 6.745 4.373 17.058 3.795 23.7-.516 3.197-2.062 5.94-5.404 7.92-8.518l41.955.165c-4.559 21.492-25.742 41.314-46.967 45.584-25.762 5.466-50.885-3.218-67.077-24.34-15.366-19.367-17.367-51.338-4.93-72.646 13.676-23.37 38.593-36.715 65.758-33.022 20.152 2.825 39.54 16.253 49.111 35.27m214.226 13.903c5.755 7.817 5.94 20.853 1.423 29.31-6.022 10.581-17.223 15.944-29.207 14.232-8.745-1.175-17.223-8.683-20.605-16.851-3.857-8.808-2.31-20.627 3.424-28.073 6.559-8.828 16.439-11.84 27.082-10.581 7.054 1.402 13.51 5.466 17.883 11.963m2.558-36.9c.35-.042-.02-8.024.041-8.148h42.903V193.29h-42.903v-7.755c-2.99 1.815-5.074 3.589-8.312 4.847-19.41 9.632-45.915 6.332-62.58-6.93-19.947-15.945-28.899-39.253-24.711-64.788 3.568-22.421 23.39-45.069 45.77-50.164 17.49-5.136 36.323-.783 49.792 9.942" fill="#e20014" fill-rule="evenodd"/><path d="M309.665 70.295h23.431v33.992h-23.431l-.104 49.091c.104 4.043 3.26 7.611 7.261 7.673l16.274-.062v32.301h-39.5c-9.797-.268-19.326-8.374-22.42-17.47-1.815-4.889-2.702-10.231-2.682-15.862l.145-55.67H251.91l.123-33.993h16.605V45.502l41.026-16.625v41.418" fill="#e20014"/><path d="M116.787 114.147v79.143H75.348v-74.46c0-25.66-34.054-25.66-34.054 0v74.461H0V70.295h41.294v9.818c30.197-26.381 75.493-9.818 75.493 34.034"/><path d="M130.09 149.46V70.294h41.44v74.461c0 25.68 34.054 25.68 34.054 0v-74.46h41.294V193.29h-41.294v-9.797c-30.197 26.38-75.493 9.797-75.493-34.034" fill="#e20014"/></svg>